Coordinates
version=1
nRows=20
nColumns=34
inDegrees=no

Units are S.I. units (second, meters, Newtons, ...)
If the header above contains a line with 'inDegrees', this indicates whether rotational values are in degrees (yes) or radians (no).

endheader
time	pelvis_tilt	pelvis_list	pelvis_rotation	pelvis_tx	pelvis_ty	pelvis_tz	hip_flexion_r	hip_adduction_r	hip_rotation_r	knee_angle_r	ankle_angle_r	subtalar_angle_r	mtp_angle_r	hip_flexion_l	hip_adduction_l	hip_rotation_l	knee_angle_l	ankle_angle_l	subtalar_angle_l	mtp_angle_l	lumbar_extension	lumbar_bending	lumbar_rotation	arm_flex_r	arm_add_r	arm_rot_r	elbow_flex_r	pro_sup_r	arm_flex_l	arm_add_l	arm_rot_l	elbow_flex_l	pro_sup_l
1.87	-0.375123	0.0368799	-0.177956	-0.113597	0.880125	-0.594269	0.918164	-0.0134966	0.091964	1.02916	0.131296	-0.246195	0	0.983007	-0.210692	-0.111897	1.07704	-0.0226715	-0.363024	0	-0.0163317	-0.0090027	0.101235	2.41901	-0.239321	0.65091	1.3427	1.83091	2.61525	-0.1237	0.831423	1.2098	2.04816
1.88	-0.359464	0.0372449	-0.175604	-0.106139	0.90147	-0.594272	0.861164	-0.0241136	0.0782542	0.955934	0.0791512	-0.181061	0	0.923685	-0.20189	-0.134178	1.00404	-0.0633861	-0.297696	0	-0.00778433	-0.007563	0.101439	2.46215	-0.230882	0.705588	1.25137	1.81479	2.64847	-0.11597	0.886389	1.11613	2.07291
1.89	-0.33905	0.0400168	-0.17275	-0.0983463	0.923963	-0.594412	0.796443	-0.0395514	0.0643141	0.875414	0.0182771	-0.113892	0	0.854587	-0.1897	-0.158818	0.921737	-0.111062	-0.227991	0	-0.00319239	-0.00895927	0.100877	2.49672	-0.218414	0.754524	1.1576	1.80539	2.67313	-0.107477	0.937557	1.02748	2.09
1.9	-0.318231	0.0432824	-0.169255	-0.0901225	0.947225	-0.594852	0.72719	-0.0572891	0.0501967	0.785801	-0.0545877	-0.0436864	0	0.780029	-0.175538	-0.18351	0.828992	-0.169112	-0.157994	0	0.00337973	-0.0109384	0.10038	2.52	-0.204623	0.797509	1.06488	1.80368	2.68522	-0.0976781	0.981649	0.947851	2.09
1.91	-0.299965	0.0457777	-0.165875	-0.0815719	0.970864	-0.595423	0.656047	-0.0747082	0.0364329	0.686228	-0.142696	0.0270484	0	0.703303	-0.161476	-0.206473	0.72551	-0.241047	-0.0923674	0	0.0151807	-0.0118381	0.100709	2.53174	-0.191504	0.836177	0.978702	1.80701	2.68406	-0.0873157	1.01392	0.878426	2.09
1.92	-0.283013	0.047945	-0.163204	-0.0730082	0.994554	-0.59593	0.583158	-0.0916224	0.0223507	0.577579	-0.248979	0.0891519	0	0.624332	-0.147657	-0.227095	0.612314	-0.32971	-0.0347513	0	0.0292965	-0.0123329	0.102402	2.5355	-0.180202	0.874805	0.901996	1.81044	2.67314	-0.0778362	1.03545	0.821023	2.09
1.93	-0.265594	0.0506516	-0.160787	-0.0645937	1.01797	-0.596338	0.508812	-0.109114	0.00532516	0.461873	-0.376501	0.134853	0	0.542972	-0.133459	-0.246262	0.49062	-0.43992	0.0119691	0	0.0425058	-0.0134669	0.104976	2.53481	-0.17052	0.917084	0.833922	1.81347	2.65591	-0.0712018	1.04993	0.776228	2.09
1.94	-0.248683	0.052967	-0.157736	-0.0563902	1.04077	-0.596714	0.434953	-0.126168	-0.0194584	0.34166	-0.517007	0.166659	0	0.461928	-0.12073	-0.268148	0.362858	-0.5688	0.0482467	0	0.055251	-0.0141095	0.106566	2.53009	-0.162387	0.960464	0.775631	1.81745	2.63484	-0.0690252	1.06174	0.742919	2.09
1.95	-0.234479	0.0530703	-0.153517	-0.048655	1.06268	-0.597118	0.364331	-0.138997	-0.0547361	0.223285	-0.633965	0.195172	0	0.386323	-0.111622	-0.29797	0.237237	-0.682187	0.0879042	0	0.0690545	-0.01256	0.104568	2.52037	-0.156482	0.997626	0.731041	1.81985	2.61317	-0.0711372	1.07564	0.718654	2.09
1.96	-0.22392	0.0513795	-0.148436	-0.0418011	1.08355	-0.597526	0.3023	-0.145014	-0.091045	0.121426	-0.68621	0.223393	0	0.322487	-0.104187	-0.326307	0.128207	-0.732626	0.146668	0	0.0839543	-0.00979747	0.0983136	2.50635	-0.153496	1.02293	0.702079	1.81714	2.59384	-0.0760017	1.09459	0.701227	2.09
1.97	-0.217073	0.0497617	-0.144412	-0.0361734	1.10309	-0.597774	0.259535	-0.146895	-0.129736	0.0569417	-0.680418	0.244934	0	0.276125	-0.0977444	-0.337543	0.0497262	-0.717113	0.21109	0	0.0994827	-0.00777258	0.0910258	2.49062	-0.153968	1.03485	0.687559	1.81048	2.57801	-0.0822099	1.11721	0.688648	2.09
1.98	-0.214617	0.0485118	-0.142918	-0.0320418	1.12107	-0.597788	0.247399	-0.149516	-0.211928	0.0461723	-0.663834	0.27287	0	0.251999	-0.0962415	-0.357952	0.0106692	-0.683688	0.258202	0	0.116024	-0.006299	0.0860699	2.47541	-0.158621	1.03696	0.686672	1.80405	2.56509	-0.088799	1.13913	0.679935	2.09
1.99	-0.216396	0.0478914	-0.142078	-0.0293781	1.13754	-0.5977	0.258341	-0.157819	-0.333549	0.0755537	-0.665037	0.29931	0	0.249193	-0.100604	-0.416738	0.00954969	-0.671052	0.284469	0	0.133672	-0.00603031	0.0825479	2.46087	-0.168176	1.03353	0.699555	1.81133	2.55254	-0.0948744	1.15278	0.676551	2.09
2	-0.219438	0.0478483	-0.139316	-0.027544	1.15287	-0.597476	0.270927	-0.17009	-0.428955	0.11201	-0.674582	0.298961	0	0.25632	-0.109984	-0.492601	0.0317959	-0.674439	0.291652	0	0.150286	-0.00793616	0.0768583	2.44484	-0.181562	1.02212	0.725069	1.84206	2.53831	-0.101811	1.15442	0.682196	2.09
2.01	-0.220537	0.0476371	-0.134993	-0.0257777	1.1675	-0.597083	0.273063	-0.177341	-0.446467	0.13185	-0.682938	0.271385	0	0.261146	-0.120527	-0.52917	0.0574736	-0.678891	0.271842	0	0.163394	-0.0105972	0.068085	2.42614	-0.195979	1.00449	0.762307	1.85299	2.52206	-0.113398	1.14787	0.700494	2.09
2.02	-0.218036	0.0467258	-0.130389	-0.0236574	1.18161	-0.596747	0.265808	-0.179538	-0.408787	0.137217	-0.687888	0.24567	0	0.259882	-0.128907	-0.515812	0.0774594	-0.679846	0.238926	0	0.171662	-0.011786	0.0591706	2.40626	-0.209712	0.982595	0.804848	1.86703	2.50211	-0.130761	1.13306	0.730456	2.09
2.03	-0.210219	0.0442553	-0.125334	-0.0212031	1.19524	-0.596682	0.25086	-0.17852	-0.347253	0.136727	-0.688674	0.221962	0	0.251168	-0.134369	-0.469942	0.0903968	-0.678702	0.202942	0	0.17247	-0.0106008	0.05132	2.38874	-0.223432	0.964743	0.849604	1.8835	2.48036	-0.151958	1.1159	0.76638	2.09
2.04	-0.197685	0.040685	-0.11885	-0.0186712	1.20832	-0.597022	0.233589	-0.179061	-0.308247	0.140722	-0.684716	0.209988	0	0.236726	-0.138152	-0.428485	0.098734	-0.674196	0.180949	0	0.165853	-0.00809921	0.043342	2.37498	-0.237553	0.953083	0.895162	1.89507	2.45972	-0.174214	1.09967	0.805834	2.09
2.05	-0.182879	0.0373112	-0.11051	-0.0161739	1.2207	-0.597798	0.215999	-0.181428	-0.297522	0.14663	-0.681456	0.20262	0	0.219546	-0.139788	-0.403735	0.102708	-0.668222	0.171143	0	0.155147	-0.00540139	0.0339243	2.36341	-0.250538	0.94364	0.939087	1.9048	2.44075	-0.196318	1.08367	0.849086	2.09
2.06	-0.16796	0.0352056	-0.100665	-0.0136803	1.23209	-0.598904	0.197528	-0.185126	-0.30764	0.149237	-0.678079	0.200251	0	0.20218	-0.139174	-0.39407	0.102881	-0.658175	0.171284	0	0.144097	-0.00350393	0.0232241	2.35228	-0.261891	0.93523	0.979899	1.91202	2.42241	-0.217902	1.06903	0.892193	2.09
